<svg width="1055" height="323" viewBox="0 0 1055 323" fill="none" xmlns="http://www.w3.org/2000/svg">
<path d="M682.13 34.5061C672.332 90.1985 596.858 115.296 499.678 126.45C311.372 148.042 41.459 117.049 9.23828 154.177C41.459 110.117 155.645 101.313 281.501 97.5286H282.059C451.726 92.3896 642.461 96.214 682.13 34.5061Z" fill="url(#paint0_linear_711_15)"/>
<path d="M1054.28 88.8043C890.193 130.474 747.769 4.54855 501.314 25.0647C439.381 30.2436 242.273 98.9628 242.273 98.9628C290.704 69.3239 460.57 13.0737 500.438 8.29325C536.283 3.95099 674.963 -17.0034 840.05 31.2395C840.089 31.2395 840.09 31.2395 840.129 31.2395C854.428 35.4622 868.925 40.1232 883.582 45.4215C989.563 83.5856 1054.28 88.8043 1054.28 88.8043Z" fill="url(#paint1_linear_711_15)"/>
<path d="M1054.28 88.8042C990.002 161.348 834.793 132.346 703.879 127.247C663.095 125.614 624.661 126.331 592.082 133.143C710.092 78.4067 837.82 95.2977 931.893 102.588H931.933C987.413 106.85 1031.18 107.846 1054.28 88.8042Z" fill="#65299D"/>
<path d="M116.935 152.743C106.42 181.665 69.5394 181.705 39.6287 181.147C21.2681 180.788 5.45642 180.231 0 186.007C7.20884 158.241 50.9797 151.11 83.4393 150.592C98.9722 150.313 111.876 151.548 116.935 152.743Z" fill="url(#paint2_linear_711_15)"/>
<path d="M682.13 34.5061C672.333 90.1985 596.859 115.296 499.679 126.45C423.289 129.996 394.254 94.8197 282.02 97.5286C451.726 92.3896 642.462 96.214 682.13 34.5061Z" fill="url(#paint3_linear_711_15)"/>
<path d="M840.05 31.1997C735.821 14.8664 645.093 0.445358 501.275 25.0249C439.342 30.2038 242.234 98.923 242.234 98.923C290.665 69.2841 460.531 13.0339 500.398 8.25345C536.283 3.9112 675.004 -17.0432 840.05 31.1997Z" fill="url(#paint4_linear_711_15)"/>
<path d="M931.893 102.588C853.631 101.154 830.611 129.518 703.879 127.207C703.879 127.207 703.879 127.207 703.879 127.247C663.095 125.614 624.661 126.331 592.082 133.143C710.052 78.3669 837.82 95.2977 931.893 102.588Z" fill="url(#paint5_linear_711_15)"/>
<path d="M956.785 150.074C1024.17 141.867 1052.89 113.224 1052.89 113.224C1061.13 147.325 1048.23 174.614 956.785 150.074Z" fill="url(#paint6_linear_711_15)"/>
<path d="M203.909 233.825H178.273C178.091 231.704 177.606 229.78 176.818 228.053C176.061 226.325 175 224.84 173.636 223.598C172.303 222.325 170.682 221.356 168.773 220.689C166.864 219.992 164.697 219.643 162.273 219.643C158.03 219.643 154.439 220.674 151.5 222.734C148.591 224.795 146.379 227.75 144.864 231.598C143.379 235.446 142.636 240.068 142.636 245.462C142.636 251.159 143.394 255.931 144.909 259.78C146.455 263.598 148.682 266.477 151.591 268.416C154.5 270.325 158 271.28 162.091 271.28C164.424 271.28 166.515 270.992 168.364 270.416C170.212 269.81 171.818 268.946 173.182 267.825C174.545 266.704 175.652 265.356 176.5 263.78C177.379 262.174 177.97 260.371 178.273 258.371L203.909 258.553C203.606 262.492 202.5 266.507 200.591 270.598C198.682 274.659 195.97 278.416 192.455 281.871C188.97 285.295 184.652 288.053 179.5 290.143C174.348 292.234 168.364 293.28 161.545 293.28C153 293.28 145.333 291.446 138.545 287.78C131.788 284.113 126.439 278.719 122.5 271.598C118.591 264.477 116.636 255.765 116.636 245.462C116.636 235.098 118.636 226.371 122.636 219.28C126.636 212.159 132.03 206.78 138.818 203.143C145.606 199.477 153.182 197.643 161.545 197.643C167.424 197.643 172.833 198.446 177.773 200.053C182.712 201.659 187.045 204.007 190.773 207.098C194.5 210.159 197.5 213.931 199.773 218.416C202.045 222.901 203.424 228.037 203.909 233.825ZM235.193 293.098C230.739 293.098 226.799 292.371 223.375 290.916C219.981 289.431 217.314 287.189 215.375 284.189C213.436 281.189 212.466 277.371 212.466 272.734C212.466 268.916 213.117 265.659 214.42 262.962C215.723 260.234 217.542 258.007 219.875 256.28C222.208 254.553 224.92 253.234 228.011 252.325C231.133 251.416 234.496 250.825 238.102 250.553C242.011 250.25 245.148 249.886 247.511 249.462C249.905 249.007 251.633 248.386 252.693 247.598C253.754 246.78 254.284 245.704 254.284 244.371V244.189C254.284 242.371 253.587 240.977 252.193 240.007C250.799 239.037 249.011 238.553 246.83 238.553C244.436 238.553 242.481 239.083 240.966 240.143C239.481 241.174 238.587 242.765 238.284 244.916H215.193C215.496 240.674 216.845 236.765 219.239 233.189C221.663 229.583 225.193 226.704 229.83 224.553C234.466 222.371 240.254 221.28 247.193 221.28C252.193 221.28 256.678 221.871 260.648 223.053C264.617 224.204 267.996 225.825 270.784 227.916C273.572 229.977 275.693 232.401 277.148 235.189C278.633 237.946 279.375 240.946 279.375 244.189V292.007H255.92V282.189H255.375C253.981 284.795 252.284 286.901 250.284 288.507C248.314 290.113 246.057 291.28 243.511 292.007C240.996 292.734 238.223 293.098 235.193 293.098ZM243.375 277.28C245.284 277.28 247.072 276.886 248.739 276.098C250.436 275.31 251.814 274.174 252.875 272.689C253.936 271.204 254.466 269.401 254.466 267.28V261.462C253.799 261.734 253.087 261.992 252.33 262.234C251.602 262.477 250.814 262.704 249.966 262.916C249.148 263.128 248.269 263.325 247.33 263.507C246.42 263.689 245.466 263.856 244.466 264.007C242.527 264.31 240.936 264.81 239.693 265.507C238.481 266.174 237.572 267.007 236.966 268.007C236.39 268.977 236.102 270.068 236.102 271.28C236.102 273.219 236.784 274.704 238.148 275.734C239.511 276.765 241.254 277.28 243.375 277.28ZM291.364 292.007V222.189H315.727V235.462H316.455C317.727 230.553 319.742 226.962 322.5 224.689C325.288 222.416 328.545 221.28 332.273 221.28C333.364 221.28 334.439 221.371 335.5 221.553C336.591 221.704 337.636 221.931 338.636 222.234V243.643C337.394 243.219 335.864 242.901 334.045 242.689C332.227 242.477 330.667 242.371 329.364 242.371C326.909 242.371 324.697 242.931 322.727 244.053C320.788 245.143 319.258 246.689 318.136 248.689C317.015 250.659 316.455 252.977 316.455 255.643V292.007H291.364ZM382.318 292.007H346.5V198.916H381.955C391.53 198.916 399.803 200.78 406.773 204.507C413.773 208.204 419.167 213.537 422.955 220.507C426.773 227.446 428.682 235.765 428.682 245.462C428.682 255.159 426.788 263.492 423 270.462C419.212 277.401 413.848 282.734 406.909 286.462C399.97 290.159 391.773 292.007 382.318 292.007ZM371.773 270.553H381.409C386.015 270.553 389.939 269.81 393.182 268.325C396.455 266.84 398.939 264.28 400.636 260.643C402.364 257.007 403.227 251.946 403.227 245.462C403.227 238.977 402.348 233.916 400.591 230.28C398.864 226.643 396.318 224.083 392.955 222.598C389.621 221.113 385.53 220.371 380.682 220.371H371.773V270.553ZM474.193 293.28C466.739 293.28 460.314 291.856 454.92 289.007C449.557 286.128 445.42 282.007 442.511 276.643C439.633 271.25 438.193 264.795 438.193 257.28C438.193 250.068 439.648 243.765 442.557 238.371C445.466 232.977 449.572 228.78 454.875 225.78C460.178 222.78 466.436 221.28 473.648 221.28C478.92 221.28 483.693 222.098 487.966 223.734C492.239 225.371 495.89 227.75 498.92 230.871C501.951 233.962 504.284 237.719 505.92 242.143C507.557 246.568 508.375 251.553 508.375 257.098V262.916H446.011V249.098H485.284C485.254 247.098 484.739 245.34 483.739 243.825C482.769 242.28 481.451 241.083 479.784 240.234C478.148 239.356 476.284 238.916 474.193 238.916C472.163 238.916 470.299 239.356 468.602 240.234C466.905 241.083 465.542 242.265 464.511 243.78C463.511 245.295 462.981 247.068 462.92 249.098V264.007C462.92 266.25 463.39 268.25 464.33 270.007C465.269 271.765 466.617 273.143 468.375 274.143C470.133 275.143 472.254 275.643 474.739 275.643C476.466 275.643 478.042 275.401 479.466 274.916C480.92 274.431 482.163 273.734 483.193 272.825C484.223 271.886 484.981 270.765 485.466 269.462H508.375C507.587 274.31 505.723 278.522 502.784 282.098C499.845 285.643 495.951 288.401 491.102 290.371C486.284 292.31 480.648 293.28 474.193 293.28ZM538.068 293.098C533.614 293.098 529.674 292.371 526.25 290.916C522.856 289.431 520.189 287.189 518.25 284.189C516.311 281.189 515.341 277.371 515.341 272.734C515.341 268.916 515.992 265.659 517.295 262.962C518.598 260.234 520.417 258.007 522.75 256.28C525.083 254.553 527.795 253.234 530.886 252.325C534.008 251.416 537.371 250.825 540.977 250.553C544.886 250.25 548.023 249.886 550.386 249.462C552.78 249.007 554.508 248.386 555.568 247.598C556.629 246.78 557.159 245.704 557.159 244.371V244.189C557.159 242.371 556.462 240.977 555.068 240.007C553.674 239.037 551.886 238.553 549.705 238.553C547.311 238.553 545.356 239.083 543.841 240.143C542.356 241.174 541.462 242.765 541.159 244.916H518.068C518.371 240.674 519.72 236.765 522.114 233.189C524.538 229.583 528.068 226.704 532.705 224.553C537.341 222.371 543.129 221.28 550.068 221.28C555.068 221.28 559.553 221.871 563.523 223.053C567.492 224.204 570.871 225.825 573.659 227.916C576.447 229.977 578.568 232.401 580.023 235.189C581.508 237.946 582.25 240.946 582.25 244.189V292.007H558.795V282.189H558.25C556.856 284.795 555.159 286.901 553.159 288.507C551.189 290.113 548.932 291.28 546.386 292.007C543.871 292.734 541.098 293.098 538.068 293.098ZM546.25 277.28C548.159 277.28 549.947 276.886 551.614 276.098C553.311 275.31 554.689 274.174 555.75 272.689C556.811 271.204 557.341 269.401 557.341 267.28V261.462C556.674 261.734 555.962 261.992 555.205 262.234C554.477 262.477 553.689 262.704 552.841 262.916C552.023 263.128 551.144 263.325 550.205 263.507C549.295 263.689 548.341 263.856 547.341 264.007C545.402 264.31 543.811 264.81 542.568 265.507C541.356 266.174 540.447 267.007 539.841 268.007C539.265 268.977 538.977 270.068 538.977 271.28C538.977 273.219 539.659 274.704 541.023 275.734C542.386 276.765 544.129 277.28 546.25 277.28ZM619.33 198.916V292.007H594.239V198.916H619.33ZM645.75 293.462C642.235 293.462 639.22 292.234 636.705 289.78C634.22 287.295 632.992 284.28 633.023 280.734C632.992 277.28 634.22 274.325 636.705 271.871C639.22 269.416 642.235 268.189 645.75 268.189C649.083 268.189 652.023 269.416 654.568 271.871C657.144 274.325 658.447 277.28 658.477 280.734C658.447 283.098 657.826 285.25 656.614 287.189C655.432 289.098 653.886 290.628 651.977 291.78C650.068 292.901 647.992 293.462 645.75 293.462ZM705.75 293.28C698.174 293.28 691.689 291.78 686.295 288.78C680.902 285.75 676.765 281.537 673.886 276.143C671.008 270.719 669.568 264.431 669.568 257.28C669.568 250.128 671.008 243.856 673.886 238.462C676.765 233.037 680.902 228.825 686.295 225.825C691.689 222.795 698.174 221.28 705.75 221.28C712.598 221.28 718.523 222.522 723.523 225.007C728.553 227.462 732.447 230.946 735.205 235.462C737.962 239.946 739.356 245.219 739.386 251.28H716.114C715.78 247.613 714.72 244.825 712.932 242.916C711.174 240.977 708.902 240.007 706.114 240.007C703.932 240.007 702.023 240.643 700.386 241.916C698.75 243.159 697.477 245.053 696.568 247.598C695.659 250.113 695.205 253.28 695.205 257.098C695.205 260.916 695.659 264.098 696.568 266.643C697.477 269.159 698.75 271.053 700.386 272.325C702.023 273.568 703.932 274.189 706.114 274.189C707.962 274.189 709.598 273.765 711.023 272.916C712.447 272.037 713.598 270.765 714.477 269.098C715.386 267.401 715.932 265.34 716.114 262.916H739.386C739.295 269.068 737.886 274.431 735.159 279.007C732.432 283.553 728.568 287.068 723.568 289.553C718.598 292.037 712.659 293.28 705.75 293.28ZM783.375 293.28C775.799 293.28 769.314 291.78 763.92 288.78C758.527 285.75 754.39 281.537 751.511 276.143C748.633 270.719 747.193 264.431 747.193 257.28C747.193 250.128 748.633 243.856 751.511 238.462C754.39 233.037 758.527 228.825 763.92 225.825C769.314 222.795 775.799 221.28 783.375 221.28C790.951 221.28 797.436 222.795 802.83 225.825C808.223 228.825 812.36 233.037 815.239 238.462C818.117 243.856 819.557 250.128 819.557 257.28C819.557 264.431 818.117 270.719 815.239 276.143C812.36 281.537 808.223 285.75 802.83 288.78C797.436 291.78 790.951 293.28 783.375 293.28ZM783.557 274.734C785.678 274.734 787.511 274.022 789.057 272.598C790.602 271.174 791.799 269.143 792.648 266.507C793.496 263.871 793.92 260.734 793.92 257.098C793.92 253.431 793.496 250.295 792.648 247.689C791.799 245.053 790.602 243.022 789.057 241.598C787.511 240.174 785.678 239.462 783.557 239.462C781.314 239.462 779.39 240.174 777.784 241.598C776.178 243.022 774.951 245.053 774.102 247.689C773.254 250.295 772.83 253.431 772.83 257.098C772.83 260.734 773.254 263.871 774.102 266.507C774.951 269.143 776.178 271.174 777.784 272.598C779.39 274.022 781.314 274.734 783.557 274.734ZM829.739 292.007V222.189H853.557V235.462H854.284C855.739 231.098 858.223 227.643 861.739 225.098C865.254 222.553 869.436 221.28 874.284 221.28C879.193 221.28 883.42 222.583 886.966 225.189C890.511 227.765 892.648 231.189 893.375 235.462H894.102C895.284 231.189 897.799 227.765 901.648 225.189C905.496 222.583 910.011 221.28 915.193 221.28C921.89 221.28 927.314 223.431 931.466 227.734C935.648 232.037 937.739 237.765 937.739 244.916V292.007H912.648V251.28C912.648 248.219 911.875 245.825 910.33 244.098C908.784 242.34 906.708 241.462 904.102 241.462C901.527 241.462 899.481 242.34 897.966 244.098C896.481 245.825 895.739 248.219 895.739 251.28V292.007H871.739V251.28C871.739 248.219 870.966 245.825 869.42 244.098C867.875 242.34 865.799 241.462 863.193 241.462C861.466 241.462 859.981 241.856 858.739 242.643C857.496 243.431 856.527 244.568 855.83 246.053C855.163 247.507 854.83 249.25 854.83 251.28V292.007H829.739Z" fill="url(#paint7_linear_711_15)"/>
<defs>
<linearGradient id="paint0_linear_711_15" x1="10.4213" y1="88.2483" x2="680.931" y2="100.451" gradientUnits="userSpaceOnUse">
<stop stop-color="#65299D"/>
<stop offset="1" stop-color="#2F2569"/>
</linearGradient>
<linearGradient id="paint1_linear_711_15" x1="570.474" y1="69.932" x2="1019.26" y2="163.033" gradientUnits="userSpaceOnUse">
<stop stop-color="#65299D"/>
<stop offset="1" stop-color="#2F2569"/>
</linearGradient>
<linearGradient id="paint2_linear_711_15" x1="56.9306" y1="154.89" x2="60.0763" y2="184.404" gradientUnits="userSpaceOnUse">
<stop stop-color="#65299D"/>
<stop offset="1" stop-color="#686869"/>
</linearGradient>
<linearGradient id="paint3_linear_711_15" x1="282.451" y1="75.1145" x2="681.261" y2="82.3726" gradientUnits="userSpaceOnUse">
<stop stop-color="#65299D"/>
<stop offset="1" stop-color="#2F2569"/>
</linearGradient>
<linearGradient id="paint4_linear_711_15" x1="243.229" y1="46.0007" x2="839.592" y2="56.8541" gradientUnits="userSpaceOnUse">
<stop stop-color="#65299D"/>
<stop offset="1" stop-color="#2F2569"/>
</linearGradient>
<linearGradient id="paint5_linear_711_15" x1="729.309" y1="111.069" x2="914.103" y2="149.404" gradientUnits="userSpaceOnUse">
<stop stop-color="#65299D"/>
<stop offset="1" stop-color="#2F2569"/>
</linearGradient>
<linearGradient id="paint6_linear_711_15" x1="956.511" y1="138.068" x2="1055.16" y2="135.938" gradientUnits="userSpaceOnUse">
<stop stop-color="#65299D"/>
<stop offset="1" stop-color="#65299D"/>
</linearGradient>
<linearGradient id="paint7_linear_711_15" x1="111" y1="245.507" x2="944" y2="245.507" gradientUnits="userSpaceOnUse">
<stop stop-color="#65299D"/>
<stop offset="1" stop-color="#9966C8"/>
</linearGradient>
</defs>
</svg>
